<?xml version="1.0" standalone="no"?><!DOCTYPE svg PUBLIC "-//W3C//DTD SVG 1.1//EN" "http://www.w3.org/Graphics/SVG/1.1/DTD/svg11.dtd"><svg t="1579857066614" class="icon" viewBox="0 0 1024 1024" version="1.1" xmlns="http://www.w3.org/2000/svg" p-id="3812" xmlns:xlink="http://www.w3.org/1999/xlink" width="200" height="200"><defs><style type="text/css"></style></defs><path d="M8.757 513.333a510.357 505.27 90 1 0 1010.539 0 510.357 505.27 90 1 0-1010.539 0z" fill="#1A95EA" p-id="3813"></path><path d="M770.667 598.208l-1.398-10.09-1.792-9.857-1.418-5.066-1.376-5.387-1.803-5.13-1.856-5.718-2.133-5.387-2.326-5.536-4.149-9.024-3.68-7.957-3.67-7.115-3.21-6.634-3.68-6.048-2.699-5.536-5.706-8.288-7.19-11.03-1.653-2.72-0.576-1.162v-0.918l1.205-3.722 1.675-3.318 1.44-6.549 0.81-3.381v-3.488l0.417-2.806v-2.816l-0.416-3.242-0.459-2.656-1.067-5.366-1.376-5.226-1.237-4.8-1.973-4.64-2.198-3.883-1.738-3.659-1.931-3.477-3.05-5.13-1.12-1.814-0.342-1.579-1.397-9.941-0.907-6.55-1.035-8.106-1.589-8.384-2.507-9.6-1.408-5.376-1.13-4.565-1.568-5.291-1.76-5.632-1.771-5.227-2.25-5.621-4.609-10.859-2.73-5.13-3.275-5.888-3.093-5.046-3.083-5.728-4.363-5.29-3.68-5.142-4.48-5.29-4.565-4.8-4.608-4.651-5.45-4.81-2.88-1.729-2.71-2.41-5.899-4.214-6.805-4.565-6.965-4.139-7.168-3.722-7.851-3.403-7.35-3.221-7.669-2.827-8.373-2.325-7.67-2.059-8.17-1.803-7.712-1.909-8.33-0.917-8.16-1.003-8.15-1.077H511.52l-8.256 0.48-7.744 1.088-7.723 1.077-7.84 1.323-7.765 1.504-7.35 1.824-7.36 2.389-6.837 2.41-6.837 2.315-6.859 3.403-6.474 2.73-5.728 3.318-5.984 3.723-5.515 3.893-5.44 4.373-4.48 4.075-7.04 6.699-5.824 6.218-5.59 6.038-5.12 6.154-4.81 6.272-4.213 6.134-4.086 6.122-1.92 2.742-1.76 3.306-3.829 5.814-3.03 5.792-2.698 5.472-2.347 5.792-2.314 5.29-1.91 4.982-1.76 5.29-1.792 4.896-2.378 8.864-1.739 8.523-0.95 7.125-0.98 6.144v11.915l-1.675 1.835-1.515 2.485-1.195 2.23-1.034 2.4-1.302 5.215-1.418 4.8-0.47 4.31-0.32 3.157v3.381l-3.274 4.811-2.336 4.8-1.76 4.64-1.302 4.15-1.002 3.967-0.96 3.734v9.525l0.565 2.315 0.81 4.224 1.003 3.232-1.813 1.418-5.141 3.883-6.795 6.283-4.16 3.722-4.075 3.659-2.784 2.912-2.304 2.56-4.96 5.376-4.693 5.387-3.68 4.64-4.416 6.709-4.213 6.037-4.16 6.72-3.51 6.208-2.912 6.624-3.093 6.134-2.25 6.037-2.38 6.304-1.77 6.123-1.739 6.293-1.536 5.483-0.864 5.866-0.96 5.462-0.8 5.312-0.49 10.346v13.91l0.49 4.234 1.302 7.2 0.458 3.179 0.864 3.21 1.046 3.051 0.981 2.144 1.568 3.99 1.205 0.81 0.736 1.686 0.928 0.394h0.96l4.086-0.394 4.17-1.078 3.51-1.418 3.669-2.411 3.36-2.219 3.04-2.922 3.285-3.04 2.763-3.147 2.645-3.563 2.4-3.221 2.262-2.677 1.397-3.062 2.741-5.056 0.864-2.058 0.491-1.238 0.235-1.418 0.64-1.152 0.49-0.256 0.928-0.502h0.598l0.234 0.502h0.47l0.469 0.256 1.536 6.858 1.675 5.547 2.229 5.824 2.25 5.216 1.889 5.195 2.922 4.554 2.123 4.8 2.41 4.406 2.763 3.818 2.112 3.659 5.59 6.784 4.874 6.037 4.704 4.704 4.63 4.235 4.021 3.317 5.984 5.376 2.4 1.184 0.8 1.142v0.565l-0.555 0.523h-0.245l-1.205 0.394-4.491 0.342-4.16 0.576-3.499 0.49-3.68 0.822-3.21 1.013-3.19 0.992-2.794 1.504-2.198 1.387-2.826 0.917-1.76 1.493-1.888 1.152-2.038 1.654-2.549 3.221-0.95 1.515-1.173 1.312-1.621 3.392-0.885 2.826-1.056 2.827-0.214 2.464v4.65l-0.469 2.305v2.357l-0.565 2.304v2.048l0.565 2.25 0.47 2.017 1.269 3.85 0.885 1.835 1.12 1.835 1.259 1.813 1.365 1.579 1.845 1.802 1.366 1.494 4.074 3.061 4.086 2.57 4.682 2.337 5.046 2.069 5.344 2.23 5.93 1.386 5.91 2.005 6.389 1.334 6.379 0.97 6.57 1.014 6.784 0.992 13.376 1.418 13.803 0.246h24.427l5.984-0.246 5.12-0.597 4.949-0.395 4.63-0.426 7.455-1.483 5.366-1.493 5.098-1.334 9.408-3.989 4.267-1.632 4.064-2.07 6.72-3.818 6.048-3.072 4.49-2.89 3.275-3.062 5.131 0.555 3.968 0.448 7.84 0.576h6.795l2.378 0.49 2.411 0.992 3.861 1.419 4.288 1.472 8.16 2.57 8.331 3.083 8.117 2.368 8.182 1.686 8.352 2.133 8.65 1.259 8.203 0.917 8.235 1.163 7.701 0.736 8.235 0.469h22.837l7.35-0.885 7.21-0.32 6.933-1.163 6.4-1.44 6.4-1.387 6.123-1.482 2.539-0.747 2.858-0.939 5.312-2.122 4.726-2.23 4.458-2.325 4.171-2.421 3.67-2.806 1.45-1.514 1.728-2.048 2.23-2.752 2.442-3.382 0.875-1.706 0.394-1.44 1.035-1.835 0.384-1.984v-1.899l0.501-1.909-0.501-2.795-0.384-2.4-1.035-2.826-0.81-2.326-1.526-2.816-1.834-2.581-1.771-2.23-2.368-1.877-4.896-4.309-5.493-4.15-5.536-3.327-5.835-3.382-13.333-6.634-3.179-1.984-0.885-0.918-0.566-0.586 6.422-6.55 2.762-3.21 2.304-2.976 4.491-6.55 4.235-6.709 3.584-5.963 3.381-5.728 4.533-11.434 3.531-9.504 2.325-6.731 1.344-2.23 0.811-1.802 1.387-1.099h0.597l0.384 0.256 3.435 6.88 3.072 6.635 2.154 3.744 2.23 3.21 2.208 3.969 2.837 3.904 2.379 2.73 1.45 1.472 1.43 1.334 1.29 0.992 1.248 0.917 2.752 1.419 1.408 0.49h2.23l1.45-0.49 1.782-0.918 1.994-0.917 1.632-1.493 1.558-1.728 1.738-2.155 1.376-1.653 1.536-2.678 1.142-2.144 1.376-3.05 0.746-2.582 1.984-6.282 1.291-6.955 0.939-7.712 0.629-4.47v-12.597z" fill="#FFFFFF" p-id="3814"></path></svg>