<?xml version="1.0" standalone="no"?><!DOCTYPE svg PUBLIC "-//W3C//DTD SVG 1.1//EN" "http://www.w3.org/Graphics/SVG/1.1/DTD/svg11.dtd"><svg t="1579881100858" class="icon" viewBox="0 0 1025 1024" version="1.1" xmlns="http://www.w3.org/2000/svg" p-id="7714" xmlns:xlink="http://www.w3.org/1999/xlink" width="200.1953125" height="200"><defs><style type="text/css"></style></defs><path d="M517.12 516.02944m-507.97056 0a507.97056 507.97056 0 1 0 1015.94112 0 507.97056 507.97056 0 1 0-1015.94112 0Z" fill="#48BB46" p-id="7715"></path><path d="M805.73952 577.34144c0-82.10944-81.94048-149.03808-173.98272-149.03808-97.44384 0-174.18752 66.92864-174.18752 149.03808 0 82.24256 76.73856 149.02784 174.18752 149.02784 20.4032 0 40.98048-5.16096 61.4656-10.31168l56.18176 30.85824-15.40096-51.328c41.10336-30.91968 71.73632-71.936 71.73632-118.2464z m-227.49184-23.01952a22.58432 22.58432 0 0 1-22.55872-22.62016 22.5792 22.5792 0 0 1 22.55872-22.6048 22.58432 22.58432 0 0 1 22.54848 22.6048 22.58944 22.58944 0 0 1-22.54848 22.62016z m112.58368 1.28c-12.45696 0-22.54336-10.12224-22.54336-22.61504s10.112-22.6048 22.54336-22.6048c12.46208 0 22.57408 10.112 22.57408 22.6048s-10.11712 22.61504-22.57408 22.61504z m-70.59968-139.00288c6.67136 0 13.21984 0.4864 19.73248 1.21856-17.71008-82.75456-105.92768-144.2304-206.63808-144.2304-112.59392 0-204.81536 76.93312-204.81536 174.64832 0 56.43776 30.68928 102.72256 81.96096 138.66496l-20.49536 61.77792 71.6032-35.99872c25.61536 5.07904 46.16704 10.31168 71.75168 10.31168 6.4256 0 12.79488-0.32256 19.11808-0.8192-4.00384-13.7216-6.3232-28.09856-6.3232-43.02848-0.02048-89.72288 76.81536-162.54464 174.1056-162.54464z m-111.55456-59.8528c17.49504 0 31.67232 14.22848 31.67232 31.74912 0 17.55136-14.17728 31.75936-31.67232 31.75936-17.4848 0-31.65696-14.20288-31.65696-31.75936-0.00512-17.52064 14.17216-31.74912 31.65696-31.74912z m-143.3088 64.14848c-17.47456 0-31.65696-14.20288-31.65696-31.74912s14.1824-31.75936 31.65696-31.75936c17.49504 0 31.68256 14.21312 31.68256 31.75936s-14.1824 31.74912-31.68256 31.74912z" fill="#FFFFFF" p-id="7716"></path></svg>