<?xml version="1.0" standalone="no"?><!DOCTYPE svg PUBLIC "-//W3C//DTD SVG 1.1//EN" "http://www.w3.org/Graphics/SVG/1.1/DTD/svg11.dtd"><svg t="1579832126644" class="icon" viewBox="0 0 1024 1024" version="1.1" xmlns="http://www.w3.org/2000/svg" p-id="4127" xmlns:xlink="http://www.w3.org/1999/xlink" width="200" height="200"><defs><style type="text/css"></style></defs><path d="M978.016 299.808l-4.384-9.824-7.2 8.032a160.352 160.352 0 0 1-64.224 44.192l-6.784 2.592 2.816 6.624c20.224 47.232 32 102.24 32 159.968v0.448-0.032c0 230.624-187.616 418.4-418.4 418.4S93.632 742.592 93.632 512c0-230.624 187.808-418.4 418.4-418.4 62.592 0 123.008 13.6 179.2 40.416l6.624 3.2 2.816-6.624a161.984 161.984 0 0 1 46.88-61.76l0.32-0.256 8.416-6.784-9.6-4.992C678.912 21.024 598.56 0 513.312 0h-1.248 0.064c-282.4 0-512 229.6-512 512s229.6 512 512 512 512-229.6 512-512c0-73.824-15.392-145.184-45.984-212.192zM512 278.624A233.632 233.632 0 0 0 278.624 512 233.632 233.632 0 0 0 512 745.376 233.632 233.632 0 0 0 745.376 512 233.76 233.76 0 0 0 512 278.624h-0.032z m441.376-85.632a106.4 106.4 0 1 1-212.8 0 106.4 106.4 0 1 1 212.8 0z" fill="#3880FF" p-id="4128"></path></svg>