<?xml version="1.0" standalone="no"?><!DOCTYPE svg PUBLIC "-//W3C//DTD SVG 1.1//EN" "http://www.w3.org/Graphics/SVG/1.1/DTD/svg11.dtd"><svg t="1579832207332" class="icon" viewBox="0 0 1024 1024" version="1.1" xmlns="http://www.w3.org/2000/svg" p-id="5238" xmlns:xlink="http://www.w3.org/1999/xlink" width="200" height="200"><defs><style type="text/css"></style></defs><path d="M915.959375 333.83867188c-22.37080078-52.89169922-54.39375001-100.38867188-95.17587891-141.1708008-40.78300781-40.78300781-88.27910156-72.80332031-141.16992187-95.17412107C624.84365234 74.32753906 566.67587891 62.58183594 506.72568359 62.58183594c-59.95019531 0-118.11796875 11.74570313-172.88701171 34.91191407-52.89082031 22.37080078-100.38779297 54.39199219-141.16992189 95.17500001-40.78300781 40.78212891-72.80507812 88.27822266-95.1758789 141.16992186C74.32753906 388.60859375 62.58183594 446.77548828 62.58183594 506.7265625c0 59.94931641 11.74570313 118.11621095 34.91103515 172.88525391 22.37167969 52.89082031 54.39287109 100.38779297 95.17587893 141.16904296 40.78212891 40.78300781 88.27910156 72.80595705 141.16992186 95.17675782 54.76992188 23.16621094 112.93769531 34.91367187 172.88789062 34.91367187 59.95019531 0 118.11796875-11.74570313 172.88789063-34.91367187 52.89082031-22.37080078 100.38691406-54.39375001 141.16992187-95.17587891s72.80507812-88.27910156 95.17587891-141.17080078c23.16445311-54.76816406 34.91191406-112.93505859 34.91191406-172.884375-0.00087891-59.95107421-11.74658203-118.11796875-34.91279297-172.88789063zM506.72568359 909.65322267c-222.17431639 0-402.92578126-180.75234375-402.92578125-402.92578126 0-222.17519531 180.75234375-402.92666016 402.92578125-402.92666016 222.17519531 0 402.92753906 180.75234375 402.92753908 402.92666016 0 222.1725586-180.75234375 402.92578126-402.92753908 402.92578126z" fill="#2B2B2B" p-id="5239"></path><path d="M693.19794922 236.77753906c-7.20791017-7.20791017-18.89472656-7.20791017-26.10263672 0l-29.17705078 29.17705077a18.46318359 18.46318359 0 0 0-5.39912109 13.56503908l1.0977539 39.41015625-203.94580078 203.96074218-47.4609375-47.46533203c-7.20878906-7.20703125-18.89472656-7.20703125-26.10351562 0L256.91679687 574.62119141c-22.63886719 22.64238282-30.50507813 58.54218749-22.75048828 103.81816406 5.18554688 30.27392578 17.69941406 63.19248047 27.89033203 73.37636719 10.02480469 10.02392578 42.75703124 22.33916016 72.96591797 27.45263671 11.20078125 1.89492188 21.8241211 2.83710938 31.81640625 2.83710938 30.34951172 0 54.85166016-8.68710937 71.85322266-25.69394532l99.19599609-99.18896484a18.45703124 18.45703124 0 0 0 0.00087891-26.10351562l-46.75078125-46.74990234 203.96777344-203.98183594 39.12187498 0.62929687 0.29707033 0.00263672c4.89550781 0 9.5897461-1.94501953 13.05175781-5.40615234l29.17705078-29.17705077c7.20703125-7.20791017 7.20703125-18.89472656 0-26.10175783l-83.55585937-83.55673828z" fill="#2A2A2A" p-id="5240"></path></svg>